<svg xmlns="http://www.w3.org/2000/svg" viewBox="0 0 47 47" width="47" height="47">
	<style>
		tspan { white-space:pre }
		.shp0 { fill: #c7b299 } 
	</style>
	<g id="CONTENT">
		<g id="Counters">
			<g id="Likes">
				<path id="icon" class="shp0" d="M32.25 2C31.83 2 31.4 2.03 30.98 2.06C30.83 2.08 30.68 2.1 30.52 2.12C30.27 2.15 30.01 2.19 29.76 2.24C29.57 2.27 29.38 2.31 29.2 2.35C28.99 2.4 28.78 2.46 28.57 2.51C28.37 2.57 28.18 2.62 27.98 2.69C27.81 2.74 27.63 2.81 27.46 2.88C27 3.05 26.55 3.24 26.12 3.46C26.03 3.5 25.94 3.54 25.86 3.59C25.63 3.71 25.41 3.84 25.18 3.98C25.06 4.05 24.94 4.12 24.82 4.2C24.6 4.34 24.4 4.48 24.19 4.63C24.13 4.68 24.06 4.72 24 4.76C21.62 2.97 18.73 2 15.75 2C8.17 2 2 8.17 2 15.75C2 28.19 10 39.45 23.41 45.86C23.59 45.95 23.8 46 24 46C24.2 46 24.41 45.95 24.59 45.86C38 39.45 46 28.19 46 15.75C46 8.17 39.83 2 32.25 2ZM24 43.1C11.93 37.11 4.75 26.93 4.75 15.75C4.75 9.68 9.68 4.75 15.75 4.75C17.97 4.75 20.12 5.43 21.94 6.68C19.81 9.11 18.5 12.28 18.5 15.75C18.5 16.51 19.11 17.12 19.88 17.12C20.64 17.12 21.25 16.51 21.25 15.75C21.25 12.48 22.7 9.54 24.97 7.52C25.18 7.33 25.4 7.16 25.63 6.99C25.68 6.95 25.73 6.91 25.78 6.87C26 6.71 26.22 6.56 26.45 6.42C26.51 6.38 26.58 6.34 26.64 6.3C26.86 6.17 27.09 6.05 27.32 5.93C27.4 5.89 27.48 5.85 27.56 5.81C27.78 5.71 28.01 5.61 28.23 5.52C28.33 5.48 28.43 5.45 28.54 5.41C28.75 5.33 28.97 5.26 29.18 5.2C29.32 5.16 29.44 5.12 29.58 5.09C29.78 5.04 29.97 4.99 30.17 4.95C30.35 4.92 30.54 4.9 30.72 4.87C30.87 4.85 31.03 4.82 31.19 4.8C31.54 4.77 31.89 4.75 32.25 4.75C38.32 4.75 43.25 9.68 43.25 15.75C43.25 26.93 36.07 37.11 24 43.1ZM32.25 7.5C31.49 7.5 30.87 8.12 30.87 8.87C30.87 9.63 31.49 10.25 32.25 10.25C35.28 10.25 37.75 12.72 37.75 15.75C37.75 16.51 38.36 17.12 39.12 17.12C39.88 17.12 40.5 16.51 40.5 15.75C40.5 11.2 36.8 7.5 32.25 7.5Z" />
			</g>
		</g>
	</g>
</svg>