<svg xmlns="http://www.w3.org/2000/svg" viewBox="0 0 46 46" width="46" height="46">
	<style>
		tspan { white-space:pre }
		.shp0 { fill: #c7b299 } 
	</style>
	<g id="CONTENT">
		<g id="Counters">
			<g id="Blog Posts">
				<path id="icon" class="shp0" d="M29.87 24.37L16.13 24.37C15.37 24.37 14.75 24.99 14.75 25.75C14.75 26.51 15.37 27.12 16.13 27.12L29.87 27.12C30.63 27.12 31.25 26.51 31.25 25.75C31.25 24.99 30.63 24.37 29.87 24.37ZM32.62 16.13L13.38 16.13C12.62 16.13 12 16.74 12 17.5C12 18.26 12.62 18.87 13.38 18.87L32.62 18.87C33.38 18.87 34 18.26 34 17.5C34 16.74 33.38 16.13 32.62 16.13ZM23 1C10.85 1 1 9.62 1 20.25C1 26.32 4.23 31.73 9.25 35.26L9.25 45L18.89 39.15C20.22 39.37 21.59 39.5 23 39.5C35.15 39.5 45 30.88 45 20.25C45 9.62 35.15 1 23 1ZM23 36.75C21.39 36.75 19.84 36.56 18.35 36.24L11.88 40.13L11.97 33.76C7.01 30.77 3.75 25.84 3.75 20.25C3.75 11.14 12.37 3.75 23 3.75C33.63 3.75 42.25 11.14 42.25 20.25C42.25 29.36 33.63 36.75 23 36.75Z" />
			</g>
		</g>
	</g>
</svg>