<svg xmlns="http://www.w3.org/2000/svg" viewBox="0 0 46 47" width="46" height="47">
	<style>
		tspan { white-space:pre }
		.shp0 { fill: #c7b299 } 
	</style>
	<g id="CONTENT">
		<g id="Counters">
			<g id="Satisfied Clients">
				<path id="icon" class="shp0" d="M20.94 32.25C26.63 32.25 31.25 26.62 31.25 19.7C31.25 12.78 26.63 7.16 20.94 7.16C18.12 7.16 15.5 8.5 13.54 10.94C11.66 13.3 10.62 16.41 10.62 19.7C10.62 26.62 15.25 32.25 20.94 32.25ZM20.94 9.91C25.11 9.91 28.5 14.3 28.5 19.7C28.5 25.11 25.11 29.5 20.94 29.5C16.77 29.5 13.37 25.11 13.37 19.7C13.37 14.3 16.77 9.91 20.94 9.91ZM29.6 30.87C28.84 30.87 28.22 31.49 28.22 32.25C28.22 33.01 28.84 33.62 29.6 33.62C34.3 33.62 38.12 37.45 38.12 42.15C38.12 42.76 37.63 43.25 37.02 43.25L4.85 43.25C4.24 43.25 3.75 42.76 3.75 42.15C3.75 37.45 7.57 33.62 12.27 33.62C13.03 33.62 13.65 33.01 13.65 32.25C13.65 31.49 13.03 30.87 12.27 30.87C6.06 30.87 1 35.93 1 42.15C1 44.27 2.73 46 4.85 46L37.02 46C39.15 46 40.87 44.27 40.87 42.15C40.87 35.93 35.82 30.87 29.6 30.87ZM21.94 5.63C22.93 5.05 23.98 4.75 25.06 4.75C29.23 4.75 32.62 9.15 32.62 14.55C32.62 15.52 32.52 16.47 32.31 17.38C32.13 18.11 32.59 18.85 33.33 19.03C33.43 19.05 33.54 19.06 33.64 19.06C34.27 19.06 34.83 18.64 34.98 18C35.24 16.89 35.37 15.73 35.37 14.55C35.37 7.63 30.75 2 25.06 2C23.5 2 21.94 2.44 20.54 3.26C19.89 3.65 19.67 4.49 20.06 5.14C20.45 5.8 21.29 6.01 21.94 5.63ZM34 25.37C33.24 25.37 32.62 25.99 32.62 26.75C32.62 27.51 33.24 28.12 34 28.12C38.7 28.12 42.25 32.04 42.25 36.74C42.25 36.9 42.22 37.05 42.16 37.19C41.85 37.89 42.16 38.7 42.85 39.01C43.03 39.09 43.22 39.12 43.41 39.12C43.94 39.12 44.44 38.82 44.67 38.31C44.89 37.81 45 37.29 45 36.74C45 30.53 40.22 25.37 34 25.37Z" />
			</g>
		</g>
	</g>
</svg>