<svg xmlns="http://www.w3.org/2000/svg" viewBox="0 0 28 28" width="28" height="28">
	<style>
		tspan { white-space:pre }
		.shp0 { fill: #c7b299 } 
	</style>
	<g id="CONTENT">
		<g id="Latest Projects">
			<g id="Project 02">
				<g id="Hover">
					<path id="link" class="shp0" d="M24.5 3.49C22.1 1.09 18.16 1.09 15.76 3.49L11.03 8.22C12.65 7.76 14.41 7.88 15.94 8.59L18.4 6.14C19.35 5.18 20.9 5.18 21.86 6.14C22.81 7.09 22.81 8.64 21.86 9.6L18.77 12.69L16.74 14.71C15.79 15.67 14.24 15.67 13.28 14.71L10.64 17.36C11.26 17.97 11.97 18.43 12.72 18.72C14.75 19.52 17.1 19.22 18.87 17.82C19.05 17.68 19.23 17.53 19.39 17.36L22.57 14.17L24.5 12.24C26.92 9.84 26.92 5.91 24.5 3.49ZM11.94 19.52L9.59 21.88C8.63 22.83 7.08 22.83 6.13 21.88C5.17 20.92 5.17 19.37 6.13 18.42L11.24 13.3C12.19 12.35 13.74 12.35 14.7 13.3L17.34 10.66C16.73 10.04 16.01 9.58 15.26 9.29C13.13 8.44 10.63 8.83 8.84 10.43C8.75 10.5 8.67 10.59 8.6 10.66L3.48 15.77C1.08 18.18 1.08 22.12 3.48 24.52C5.89 26.93 9.82 26.93 12.23 24.52L16.85 19.85C14.49 20.39 13.95 20.33 11.94 19.52Z" />
				</g>
			</g>
		</g>
	</g>
</svg>