<svg xmlns="http://www.w3.org/2000/svg" viewBox="0 0 80 76" width="80" height="76">
	<style>
		tspan { white-space:pre }
		.shp0 { fill: #ffffff } 
	</style>
	<g id="CONTENT">
		<g id="Video Presentation">
			<g id="Play Video">
				<path id="icon-play" class="shp0" d="M34.93 56.82C34.64 56.82 34.34 56.76 34.06 56.63C33.34 56.29 32.87 55.56 32.87 54.76L32.87 25.24C32.87 24.44 33.34 23.71 34.06 23.37C34.78 23.03 35.64 23.14 36.25 23.65L53.97 38.42C54.44 38.81 54.71 39.39 54.71 40C54.71 40.61 54.44 41.19 53.97 41.58L36.25 56.34C35.88 56.66 35.41 56.82 34.93 56.82ZM36.99 29.63L36.99 50.36L49.43 40L36.99 29.63ZM39.94 75C34.07 75 28.17 73.54 22.83 70.53C21.84 69.97 21.49 68.71 22.05 67.72C22.6 66.73 23.86 66.38 24.85 66.94C36.87 73.7 52.08 71.61 61.85 61.85C73.89 49.8 73.89 30.2 61.85 18.15C49.8 6.1 30.2 6.1 18.15 18.15C6.1 30.2 6.1 49.8 18.15 61.85C18.95 62.65 18.95 63.95 18.15 64.76C17.35 65.56 16.04 65.56 15.24 64.76C1.58 51.1 1.58 28.89 15.24 15.24C28.89 1.58 51.1 1.58 64.76 15.24C78.41 28.89 78.41 51.1 64.76 64.76C58.03 71.48 49.03 75 39.94 75Z" />
			</g>
		</g>
	</g>
</svg>