<svg xmlns="http://www.w3.org/2000/svg" viewBox="0 0 51 47" width="51" height="47">
	<style>
		tspan { white-space:pre }
		.shp0 { fill: #c7b299 } 
	</style>
	<g id="CONTENT">
		<g id="Counters">
			<g id="Cups of coffee consumed">
				<path id="icon" class="shp0" d="M48.04 44.75C48.04 45.44 47.49 46 46.81 46L3.23 46C2.55 46 2 45.44 2 44.75C2 44.06 2.55 43.5 3.23 43.5L46.81 43.5C47.49 43.5 48.04 44.06 48.04 44.75ZM23.77 24.21C24.01 24.44 24.31 24.55 24.61 24.55C24.94 24.55 25.27 24.42 25.51 24.15C25.98 23.65 25.95 22.86 25.45 22.38C23.34 20.38 23.79 16.31 25.61 14.01C28.08 10.89 28.62 5.33 25.45 2.34C24.95 1.87 24.17 1.89 23.71 2.4C23.24 2.9 23.27 3.7 23.77 4.17C25.67 5.96 25.63 9.99 23.68 12.45C22.4 14.07 21.64 16.23 21.59 18.4C21.53 20.76 22.3 22.82 23.77 24.21ZM50 21.61L50 24.01C50 27.45 47.24 30.25 43.85 30.25L41.09 30.25C39.22 35.52 34.24 39.3 28.41 39.3L21.64 39.3C14.21 39.3 8.16 33.18 8.16 25.64L8.16 13.23C8.16 12.54 8.72 11.98 9.4 11.98L17.31 11.98C18.92 9.5 18.85 5.85 17.06 4.17C16.56 3.69 16.54 2.9 17 2.4C17.47 1.89 18.25 1.87 18.75 2.34C21.91 5.33 21.37 10.89 18.9 14.01C17.08 16.31 16.63 20.38 18.75 22.38C19.24 22.86 19.27 23.65 18.81 24.15C18.34 24.66 17.56 24.68 17.06 24.21C15.6 22.82 14.82 20.76 14.88 18.4C14.91 17.05 15.22 15.7 15.76 14.48L10.63 14.48L10.63 25.64C10.63 31.8 15.57 36.8 21.64 36.8L28.41 36.8C34.47 36.8 39.41 31.8 39.41 25.64L39.41 14.48L30.13 14.48C29.45 14.48 28.9 13.92 28.9 13.23C28.9 12.54 29.45 11.98 30.13 11.98L40.65 11.98C41.33 11.98 41.88 12.54 41.88 13.23L41.88 15.38L43.85 15.38C47.24 15.38 50 18.17 50 21.61ZM47.53 21.61C47.53 19.55 45.88 17.88 43.85 17.88L41.88 17.88L41.88 27.75L43.85 27.75C45.88 27.75 47.53 26.07 47.53 24.01L47.53 21.61Z" />
			</g>
		</g>
	</g>
</svg>