<svg xmlns="http://www.w3.org/2000/svg" viewBox="0 0 56 46" width="56" height="46">
	<style>
		tspan { white-space:pre }
		.shp0 { fill: #c7b299 } 
	</style>
	<g id="CONTENT">
		<g id="Counters">
			<g id="We Launched">
				<path id="icon" class="shp0" d="M53.31 41.61L2.69 41.61C1.76 41.61 1 42.37 1 43.3C1 44.24 1.76 45 2.69 45L53.31 45C54.24 45 55 44.24 55 43.3C55 42.37 54.24 41.61 53.31 41.61ZM29.69 7.77L29.69 4.39L33.06 4.39C33.99 4.39 34.75 3.63 34.75 2.69C34.75 1.76 33.99 1 33.06 1L22.94 1C22.01 1 21.25 1.76 21.25 2.69C21.25 3.63 22.01 4.39 22.94 4.39L26.31 4.39C26.31 4.39 26.3 7.91 26.31 7.77C12.19 8.65 1 20.46 1 34.84C1 36.22 1 35.6 1 36.54C1 37.47 1.76 38.23 2.69 38.23L53.31 38.23C54.24 38.23 55 37.47 55 36.54C55 35.6 55 36.32 55 34.84C55 20.46 43.81 8.65 29.69 7.77ZM4.38 34.84C4.38 21.76 14.95 11.16 28 11.16C41.05 11.16 51.62 21.76 51.62 34.84L4.38 34.84Z" />
			</g>
		</g>
	</g>
</svg>