<svg xmlns="http://www.w3.org/2000/svg" viewBox="0 0 29 27" width="29" height="27">
	<style>
		tspan { white-space:pre }
		.shp0 { fill: #ffffff } 
	</style>
	<g id="CONTENT">
		<g id="Latest Projects">
			<g id="Project 02">
				<g id="Hover">
					<path id="lupa" class="shp0" d="M12.3 5.08C11.58 5.08 10.99 5.66 10.99 6.38C10.99 7.09 11.58 7.67 12.3 7.67C13.91 7.67 15.35 8.56 16.05 9.98C16.28 10.44 16.75 10.71 17.23 10.71C17.43 10.71 17.62 10.67 17.81 10.58C18.46 10.27 18.74 9.49 18.42 8.85C17.27 6.52 14.92 5.08 12.3 5.08ZM26.46 22.88L22.07 18.56C23.37 16.76 24.14 14.57 24.14 12.2C24.14 6.13 19.12 1.19 12.96 1.19C6.79 1.19 1.78 6.13 1.78 12.2C1.78 18.28 6.79 23.22 12.96 23.22C15.53 23.22 17.9 22.35 19.79 20.9L24.13 25.17C24.45 25.49 24.87 25.65 25.29 25.65C25.71 25.65 26.14 25.49 26.46 25.17C27.1 24.54 27.1 23.51 26.46 22.88ZM4.41 12.2C4.41 7.56 8.24 3.78 12.96 3.78C17.67 3.78 21.51 7.56 21.51 12.2C21.51 14.13 20.84 15.91 19.72 17.34C19.36 17.81 18.94 18.24 18.48 18.62C16.99 19.87 15.06 20.63 12.96 20.63C8.24 20.63 4.41 16.85 4.41 12.2Z" />
				</g>
			</g>
		</g>
	</g>
</svg>